<?xml version="1.0" encoding="UTF-8" standalone="no"?>
<svg
   width="126.24802"
   height="20.816"
   viewBox="0 0 126.24802 20.816"
   version="1.1"
   id="svg2"
   xmlns="http://www.w3.org/2000/svg"
   xmlns:svg="http://www.w3.org/2000/svg">
  <defs
     id="defs2" />
  <style
     id="style1">
    .text { fill: #e0e0e0; }
    .dot { fill: #c8ffe9; }
  </style>
  <path
     d="M 10.872,7.104 V 9.36 Q 9.528,8.088 8.112,7.536 7.704,7.368 7.272,7.32 6.84,7.248 6.408,7.248 q -1.992,0 -3.264,1.488 -1.272,1.536 -1.272,3.648 0,2.16 1.32,3.696 1.32,1.464 3.312,1.464 1.248,0 2.28,-0.528 1.032,-0.552 2.088,-1.632 v 2.28 Q 9.6,18.456 8.568,18.792 7.536,19.128 6.48,19.128 3.792,19.128 1.872,17.208 3.6309484e-8,15.216 3.6309484e-8,12.408 3.6309484e-8,9.648 1.848,7.656 3.72,5.688 6.504,5.688 q 1.416,0 2.64,0.48 0.72,0.264 1.728,0.936 z m 7.967978,12.024 q -2.472,0 -4.344,-1.8 -1.992,-1.896 -1.992,-4.92 0,-2.856 1.752,-4.776 1.8,-1.944 4.44,-1.944 2.616,0 4.416,1.944 1.776,1.92 1.776,4.752 0,2.976 -1.92,4.92 -1.776,1.824 -4.128,1.824 z m -0.168,-1.584 q 1.728,0 3.072,-1.44 1.296,-1.464 1.296,-3.72 0,-2.328 -1.392,-3.792 -1.272,-1.344 -2.952,-1.344 -1.728,0 -2.952,1.392 -1.344,1.536 -1.344,3.768 0,2.256 1.32,3.768 1.224,1.368 2.952,1.368 z M 35.807983,-1.1458752e-8 h 1.848 V 18.816 h -1.656 l -0.168,-2.088 q -0.336,0.48 -0.672,0.864 -0.336,0.36 -0.672,0.624 -1.2,0.912 -2.784,0.912 -2.472,0 -4.104,-1.92 -1.608,-1.92 -1.608,-4.656 0,-2.832 1.704,-4.824 1.728,-2.04 4.32,-2.04 1.08,0 2.016,0.384 0.336,0.144 0.768,0.384 0.456,0.24 1.008,0.576 z M 35.807983,12.6 V 8.904 q -1.128,-0.984 -1.968,-1.32 -0.84,-0.336 -1.632,-0.336 -1.968,0 -3.192,1.656 -1.152,1.56 -1.152,3.624 0,2.208 1.272,3.672 1.176,1.344 2.784,1.344 1.584,0 2.736,-1.392 1.152,-1.392 1.152,-3.552 z m 15.264022,-0.72 h -9.768 q 0,2.76 1.272,4.224 1.296,1.44 3.384,1.44 1.584,0 3.048,-1.008 0.408,-0.264 0.864,-0.648 0.456,-0.408 0.984,-0.936 v 2.088 q -0.576,0.432 -1.08,0.768 -0.48,0.312 -0.912,0.528 -1.512,0.792 -3.024,0.792 -2.616,0 -4.44,-1.8 -1.968,-1.896 -1.968,-4.92 0,-2.856 1.776,-4.776 1.8,-1.944 4.44,-1.944 2.568,0 4.08,1.872 1.344,1.704 1.344,4.32 z m -9.528,-1.464 h 7.512 q -0.288,-1.632 -1.248,-2.424 -0.936,-0.816 -2.28,-0.816 -1.488,0 -2.52,0.936 -0.96,0.864 -1.464,2.304 z M 72.096,10.584 v 8.232 h -1.752 v -8.64 q 0,-1.368 -0.936,-2.208 -0.792,-0.72 -1.872,-0.72 -1.608,0 -2.88,1.488 -1.248,1.464 -1.248,3.624 v 6.456 h -1.752 v -8.64 q 0,-1.296 -0.888,-2.088 -0.84,-0.84 -1.92,-0.84 -1.56,0 -2.784,1.392 -1.344,1.536 -1.344,3.792 v 6.384 H 52.968 V 5.976 H 54.6 l 0.072,2.04 q 0.696,-1.128 1.992,-1.776 1.152,-0.552 2.328,-0.552 1.824,0 3.072,1.056 0.912,0.792 1.152,1.584 0.48,-0.888 1.368,-1.608 1.392,-1.032 3.072,-1.032 2.04,0 3.168,1.224 1.272,1.392 1.272,3.672 z m 2.183991,-4.608 h 1.728 v 12.84 h -1.728 z m 0.84,-5.42400002 q 0.504,0 0.84,0.336 0.336,0.33600002 0.336,0.96000002 0,0.624 -0.312,0.96 -0.312,0.336 -0.864,0.336 -0.552,0 -0.864,-0.384 -0.288,-0.384 -0.288,-0.888 0,-0.792 0.36,-1.05600002 0.36,-0.264 0.792,-0.264 z M 89.376001,10.224 v 8.592 h -1.728 v -8.472 q 0,-1.344 -0.984,-2.208 -0.984,-0.888 -2.352,-0.888 -1.824,0 -3.144,1.512 -1.32,1.536 -1.32,3.456 v 6.6 h -1.632 V 5.976 h 1.512 l 0.072,2.4 q 0.648,-0.984 1.512,-1.632 1.416,-1.056 3.192,-1.056 2.064,0 3.456,1.248 1.416,1.224 1.416,3.288 z M 102.912,11.88 h -9.767999 q 0,2.76 1.272,4.224 1.295999,1.44 3.383999,1.44 1.584,0 3.048,-1.008 0.408,-0.264 0.864,-0.648 0.456,-0.408 0.984,-0.936 v 2.088 q -0.576,0.432 -1.08,0.768 -0.48,0.312 -0.912,0.528 -1.512,0.792 -3.024,0.792 -2.615999,0 -4.439999,-1.8 -1.968,-1.896 -1.968,-4.92 0,-2.856 1.776,-4.776 1.8,-1.944 4.439999,-1.944 2.568,0 4.08,1.872 1.344,1.704 1.344,4.32 z M 93.384001,10.416 H 100.896 q -0.288,-1.632 -1.248,-2.424 -0.936,-0.816 -2.28,-0.816 -1.488,0 -2.519999,0.936 -0.96,0.864 -1.464,2.304 z"
     style="fill:#e0e0e0"
     aria-label="codemine" />
  <path
     style="fill:#c8ffe9"
     d="m 108.4,18.816 a 2,2 0 0 1 -2,2 2,2 0 0 1 -2,-2 2,2 0 0 1 2,-2 2,2 0 0 1 2,2 z" />
  <path
     d="m 110.264,5.976 h 1.728 v 12.84 h -1.728 z m 0.84,-5.42400002 q 0.504,0 0.84,0.336 Q 112.28,1.224 112.28,1.848 q 0,0.624 -0.312,0.96 -0.312,0.336 -0.864,0.336 -0.552,0 -0.864,-0.384 -0.288,-0.384 -0.288,-0.888 0,-0.792 0.36,-1.05600002 0.36,-0.264 0.792,-0.264 z M 120.20001,19.128 q -2.472,0 -4.344,-1.8 -1.992,-1.896 -1.992,-4.92 0,-2.856 1.752,-4.776 1.8,-1.944 4.44,-1.944 2.616,0 4.416,1.944 1.776,1.92 1.776,4.752 0,2.976 -1.92,4.92 -1.776,1.824 -4.128,1.824 z m -0.168,-1.584 q 1.728,0 3.072,-1.44 1.296,-1.464 1.296,-3.72 0,-2.328 -1.392,-3.792 -1.272,-1.344 -2.952,-1.344 -1.728,0 -2.952,1.392 -1.344,1.536 -1.344,3.768 0,2.256 1.32,3.768 1.224,1.368 2.952,1.368 z"
     style="fill:#e0e0e0"
     aria-label="io" />
</svg>
