<?xml version="1.0" encoding="UTF-8" standalone="no"?>
<svg
   xmlns:dc="http://purl.org/dc/elements/1.1/"
   xmlns:cc="http://creativecommons.org/ns#"
   xmlns:rdf="http://www.w3.org/1999/02/22-rdf-syntax-ns#"
   xmlns:svg="http://www.w3.org/2000/svg"
   xmlns="http://www.w3.org/2000/svg"
   xmlns:sodipodi="http://sodipodi.sourceforge.net/DTD/sodipodi-0.dtd"
   xmlns:inkscape="http://www.inkscape.org/namespaces/inkscape"
   width="753.37mm"
   height="169.96mm"
   version="1.1"
   viewBox="0 0 753.36 169.97"
   id="svg865"
   sodipodi:docname="CodeMine Logo V7 - White.svg"
   inkscape:version="1.0.1 (c497b03c, 2020-09-10)">
  <defs
     id="defs869" />
  <sodipodi:namedview
     pagecolor="#ffffff"
     bordercolor="#666666"
     borderopacity="1"
     objecttolerance="10"
     gridtolerance="10"
     guidetolerance="10"
     inkscape:pageopacity="0"
     inkscape:pageshadow="2"
     inkscape:window-width="1920"
     inkscape:window-height="1147"
     id="namedview867"
     showgrid="false"
     showguides="true"
     inkscape:guide-bbox="true"
     inkscape:zoom="0.14160668"
     inkscape:cx="1332.7858"
     inkscape:cy="1007.6297"
     inkscape:window-x="0"
     inkscape:window-y="25"
     inkscape:window-maximized="1"
     inkscape:current-layer="svg865" />
  <metadata
     id="metadata833">
    <rdf:RDF>
      <cc:Work
         rdf:about="">
        <dc:format>image/svg+xml</dc:format>
        <dc:type
           rdf:resource="http://purl.org/dc/dcmitype/StillImage" />
        <dc:title></dc:title>
      </cc:Work>
    </rdf:RDF>
  </metadata>
  <g
     fill="#fff"
     id="g861"
     style="fill:#ffffff"
     transform="translate(0,-4.7627802)">
    <g
       transform="translate(14.817,1.5875)"
       id="g845"
       style="fill:#ffffff">
      <path
         d="m 249.49,124.76 q -2.4234,1.6156 -6.5971,3.6352 -4.1737,2.0195 -9.8284,3.3659 -5.5201,1.3464 -12.117,1.3464 -11.309,-0.13464 -20.465,-4.0391 -9.0206,-3.9044 -15.348,-10.636 -6.3279,-6.7318 -9.8284,-15.483 -3.3659,-8.8859 -3.3659,-18.849 0,-10.905 3.5005,-20.061 3.6351,-9.2898 10.098,-16.022 6.4625,-6.8664 15.214,-10.636 8.8859,-3.7698 19.387,-3.7698 8.7513,0 15.887,2.4234 7.1357,2.2888 12.252,5.52 l -5.2508,12.117 q -4.0391,-2.6927 -9.8284,-5.1161 -5.6547,-2.4234 -12.656,-2.4234 -7.1357,0 -13.464,2.8273 -6.3279,2.8273 -11.175,7.9435 -4.8468,5.1161 -7.6742,11.983 -2.6927,6.7318 -2.6927,14.541 0,7.9435 2.4234,14.81 2.5581,6.7318 7.1357,11.713 4.7122,4.9815 11.309,7.8088 6.5971,2.8273 14.81,2.8273 7.405,0 13.194,-2.2888 5.7893,-2.2888 9.5591,-5.1161 z"
         stroke-width="0.70123"
         style="font-variant-ligatures:normal;font-variant-caps:normal;font-variant-numeric:normal;font-variant-east-asian:normal;fill:#ffffff"
         id="path835" />
      <g
         stroke-width=".79877"
         id="g843"
         style="fill:#ffffff">
        <path
           d="m 249.55,98.432 q 0,-9.5085 4.4475,-17.177 4.6009,-7.6682 12.576,-12.116 7.9749,-4.4475 18.097,-4.4475 10.429,0 18.25,4.4475 7.8215,4.4475 12.116,12.116 4.2942,7.6682 4.2942,17.177 0,9.5085 -4.2942,17.33 -4.2942,7.6682 -12.269,12.116 -7.8215,4.4475 -18.25,4.4475 -10.122,0 -18.097,-4.1408 -7.8215,-4.2942 -12.422,-11.809 -4.4475,-7.6682 -4.4475,-17.943 z m 14.263,0.15336 q 0,6.1345 2.7605,11.196 2.7606,4.9076 7.3614,7.8215 4.7543,2.9139 10.429,2.9139 5.9812,0 10.582,-2.9139 4.7542,-2.9139 7.3614,-7.8215 2.6072,-5.061 2.6072,-11.196 0,-6.1345 -2.6072,-11.042 -2.6072,-5.061 -7.3614,-7.9749 -4.6009,-3.0673 -10.582,-3.0673 -5.8278,0 -10.582,3.0673 -4.6009,3.0673 -7.3614,8.1282 -2.6072,4.9076 -2.6072,10.889 z"
           style="font-variant-ligatures:normal;font-variant-caps:normal;font-variant-numeric:normal;font-variant-east-asian:normal;fill:#ffffff"
           id="path837" />
        <path
           d="m 371.35,128.64 c 4.7031,-2.556 8.5372,-5.7767 11.502,-9.6619 l -1.5336,-3.9874 v 15.796 h 14.263 v -95.242 h -14.109 v 46.319 l 0.61344,-5.061 c -2.556,-3.783 -6.1345,-6.748 -10.735,-8.8951 -4.4987,-2.1471 -9.2529,-3.2206 -14.263,-3.2206 -6.2368,0 -11.86,1.3291 -16.87,3.9874 -5.01,2.6583 -8.9973,6.4924 -11.962,11.502 -2.8628,5.0099 -4.2942,11.042 -4.2942,18.097 0,6.748 1.3803,12.729 4.1408,17.943 2.7605,5.1121 6.4924,9.0996 11.196,11.962 4.8054,2.7605 10.122,4.1408 15.95,4.1408 6.0323,0 11.4,-1.2269 16.103,-3.6807 z m -22.238,-11.349 c -3.2718,-2.0448 -5.8789,-4.7031 -7.8215,-7.9749 -1.9426,-3.374 -2.9139,-7.157 -2.9139,-11.349 0,-4.2942 0.97131,-8.0771 2.9139,-11.349 1.9426,-3.2717 4.4987,-5.8278 7.6682,-7.6682 3.2717,-1.9426 6.8502,-2.9139 10.735,-2.9139 3.5785,0 6.7991,0.7157 9.6619,2.1471 2.965,1.3291 5.4699,3.1695 7.5148,5.5211 2.1471,2.2493 3.6296,4.9076 4.4475,7.9749 v 11.962 c -0.81794,3.374 -2.1982,6.2879 -4.1408,8.7417 -1.9426,2.4538 -4.3964,4.3964 -7.3614,5.8278 -2.965,1.3292 -6.339,1.9937 -10.122,1.9937 -3.783,0 -7.3103,-0.9713 -10.582,-2.9139 z"
           style="font-variant-ligatures:normal;font-variant-caps:normal;font-variant-numeric:normal;font-variant-east-asian:normal;fill:#ffffff"
           id="path839" />
        <path
           d="m 435.3,132.33 q -10.889,0 -18.71,-4.2942 -7.8215,-4.4475 -12.116,-11.962 -4.1408,-7.6682 -4.1408,-17.483 0,-9.3552 4.7543,-17.023 4.7542,-7.6682 12.729,-12.269 7.9749,-4.6009 17.79,-4.6009 12.576,0 20.857,7.3614 8.2816,7.3614 11.195,20.244 l -52.297,18.404 -3.374,-8.435 42.942,-15.643 -3.0673,1.9937 q -1.8404,-5.061 -6.1345,-8.7417 -4.2942,-3.8341 -11.196,-3.8341 -5.8278,0 -10.429,2.9139 -4.6009,2.7605 -7.2081,7.6682 -2.6072,4.9076 -2.6072,11.196 0,6.5946 2.7605,11.656 2.7606,4.9076 7.5148,7.8215 4.9076,2.7605 11.042,2.7605 4.1408,0 7.9749,-1.5336 3.9874,-1.5336 7.3614,-3.9874 l 6.5946,10.582 q -4.7542,3.2206 -10.735,5.2144 -5.8278,1.9937 -11.502,1.9937 z"
           style="font-variant-ligatures:normal;font-variant-caps:normal;font-variant-numeric:normal;font-variant-east-asian:normal;fill:#ffffff"
           id="path841" />
      </g>
    </g>
    <g
       transform="translate(15.866,1.5875)"
       id="g859"
       style="fill:#ffffff">
      <path
         d="M 472.63,130.8 V 35.55 h 0.12767 l 48.391,68.692 -5.2349,-1.0214 48.263,-67.671 h 0.25538 v 95.25 h -12.257 v -67.16 l 0.76609,6.2564 -34.857,49.285 h -0.25536 l -35.368,-49.285 2.1706,-5.7456 v 66.649 z"
         stroke-width="0.665"
         style="font-variant-ligatures:normal;font-variant-caps:normal;font-variant-numeric:normal;font-variant-east-asian:normal;fill:#ffffff"
         id="path847" />
      <g
         stroke-width=".79877"
         id="g857"
         style="fill:#ffffff">
        <path
           d="m 571.8,43.752 q 0,-3.374 2.6072,-5.6744 2.7605,-2.3004 5.9812,-2.3004 3.2206,0 5.6744,2.3004 2.6072,2.3004 2.6072,5.6744 0,3.5274 -2.6072,5.8278 -2.4538,2.1471 -5.6744,2.1471 -3.2206,0 -5.9812,-2.3004 Q 571.8,47.1261 571.8,43.7521 Z"
           style="font-variant-ligatures:normal;font-variant-caps:normal;font-variant-numeric:normal;font-variant-east-asian:normal;fill:#ffffff"
           id="path849" />
        <path
           d="m 572.87,67.3 h 14.263 v 63.492 H 572.87 Z"
           style="font-variant-ligatures:normal;font-variant-caps:normal;font-variant-numeric:normal;font-variant-east-asian:normal;fill:#ffffff"
           id="path851" />
        <path
           d="m 607.3,67.3 1.2269,15.49 -0.61346,-2.4538 q 3.0673,-7.0547 9.9686,-11.196 6.9013,-4.2942 15.95,-4.2942 9.0484,0 14.723,5.3677 5.8278,5.2143 5.9812,13.649 v 46.929 h -14.416 v -41.868 q -0.15337,-5.2143 -3.0672,-8.435 -2.7606,-3.374 -8.7417,-3.374 -5.5211,0 -9.9686,3.0673 -4.4475,3.0673 -7.0547,8.435 -2.4538,5.3677 -2.4538,12.422 v 29.752 h -14.263 V 67.299 Z"
           style="font-variant-ligatures:normal;font-variant-caps:normal;font-variant-numeric:normal;font-variant-east-asian:normal;fill:#ffffff"
           id="path853" />
        <path
           d="m 695.15,132.33 q -10.889,0 -18.71,-4.2942 -7.8215,-4.4475 -12.116,-11.962 -4.1408,-7.6682 -4.1408,-17.483 0,-9.3552 4.7543,-17.023 4.7542,-7.6682 12.729,-12.269 7.9749,-4.6009 17.79,-4.6009 12.576,0 20.857,7.3614 8.2816,7.3614 11.196,20.244 l -52.297,18.404 -3.374,-8.435 42.942,-15.643 -3.0673,1.9937 q -1.8404,-5.061 -6.1345,-8.7417 -4.2942,-3.8341 -11.196,-3.8341 -5.8278,0 -10.429,2.9139 -4.6009,2.7605 -7.2081,7.6682 -2.6072,4.9076 -2.6072,11.196 0,6.5946 2.7605,11.656 2.7605,4.9076 7.5148,7.8215 4.9076,2.7605 11.042,2.7605 4.1408,0 7.9749,-1.5336 3.9874,-1.5336 7.3614,-3.9874 l 6.5946,10.582 q -4.7542,3.2206 -10.735,5.2144 -5.8278,1.9937 -11.502,1.9937 z"
           style="font-variant-ligatures:normal;font-variant-caps:normal;font-variant-numeric:normal;font-variant-east-asian:normal;fill:#ffffff"
           id="path855" />
      </g>
    </g>
  </g>
  <path
     transform="matrix(.26459 0 0 .26459 -.012875 0)"
     d="m321.19 37.795a283.4 283.4 0 0 0-251.93 153.61l48.139 28.08 9.2168 41.477h424l-59.91 221.21h-23.691a52.666 52.666 0 0 0 0.0625-2.5684 52.666 52.666 0 0 0-52.666-52.666 52.666 52.666 0 0 0-52.666 52.666 52.666 52.666 0 0 0 0.06445 2.5684h-78.881a52.666 52.666 0 0 0 0.05078-2.2891 52.666 52.666 0 0 0-52.666-52.666 52.666 52.666 0 0 0-52.664 52.666 52.666 52.666 0 0 0 0.04883 2.2891h-18.812l-64.52-248.86-36.037-18.02a283.4 283.4 0 0 0-20.529 105.9 283.4 283.4 0 0 0 283.39 283.39 283.4 283.4 0 0 0 283.4-283.39 283.4 283.4 0 0 0-283.4-283.4zm12.65 112.56 65.955 61.939 26.383-23.227 61.561 58.068-329.78 0.00195 79.145-73.555 35.178 30.971 61.561-54.199zm80.266 294.19a35.059 35.059 0 0 1 0.30078 0 35.059 35.059 0 0 1 35.059 35.059 35.059 35.059 0 0 1-35.059 35.059 35.059 35.059 0 0 1-35.059-35.059 35.059 35.059 0 0 1 34.758-35.059zm-183.8 0.27734a35.059 35.059 0 0 1 35.059 35.059 35.059 35.059 0 0 1-35.059 35.061 35.059 35.059 0 0 1-35.059-35.061 35.059 35.059 0 0 1 35.059-35.059z"
     fill="#fff"
     id="path863"
     style="fill:#ffffff" />
</svg>
