<?xml version="1.0" encoding="UTF-8" standalone="no"?>
<svg
   width="753.37mm"
   height="169.96mm"
   version="1.1"
   viewBox="0 0 753.36 169.97"
   id="svg865"
   sodipodi:docname="logo.svg"
   inkscape:version="1.4.3 (0d15f75, 2025-12-25)"
   xmlns:inkscape="http://www.inkscape.org/namespaces/inkscape"
   xmlns:sodipodi="http://sodipodi.sourceforge.net/DTD/sodipodi-0.dtd"
   xmlns="http://www.w3.org/2000/svg"
   xmlns:svg="http://www.w3.org/2000/svg"
   xmlns:rdf="http://www.w3.org/1999/02/22-rdf-syntax-ns#"
   xmlns:cc="http://creativecommons.org/ns#"
   xmlns:dc="http://purl.org/dc/elements/1.1/">
  <defs
     id="defs869" />
  <sodipodi:namedview
     pagecolor="#000000"
     bordercolor="#666666"
     borderopacity="1"
     objecttolerance="10"
     gridtolerance="10"
     guidetolerance="10"
     inkscape:pageopacity="0"
     inkscape:pageshadow="2"
     inkscape:window-width="1490"
     inkscape:window-height="1048"
     id="namedview867"
     showgrid="false"
     showguides="true"
     inkscape:guide-bbox="true"
     inkscape:zoom="0.24158135"
     inkscape:cx="1260.445"
     inkscape:cy="1032.7784"
     inkscape:window-x="218"
     inkscape:window-y="38"
     inkscape:window-maximized="0"
     inkscape:current-layer="g2"
     inkscape:showpageshadow="2"
     inkscape:pagecheckerboard="0"
     inkscape:deskcolor="#d1d1d1"
     inkscape:document-units="mm"
     inkscape:export-bgcolor="#00000000" />
  <metadata
     id="metadata833">
    <rdf:RDF>
      <cc:Work
         rdf:about="">
        <dc:format>image/svg+xml</dc:format>
        <dc:type
           rdf:resource="http://purl.org/dc/dcmitype/StillImage" />
      </cc:Work>
    </rdf:RDF>
  </metadata>
  <g
     id="g1"
     transform="matrix(1.0811101,0,0,1.0811101,-55.630629,-365.22301)">
    <g
       id="g2"
       transform="translate(0,7.3424221)">
      <path
         d="m 128.85817,358.38672 a 52.642548,52.642548 0 0 0 -46.796882,28.5336 l 8.941976,5.21596 1.71206,7.7045 h 78.759486 l -11.12849,41.09055 h -4.40069 a 9.7828952,9.7828952 0 0 0 0.0116,-0.4771 9.7828952,9.7828952 0 0 0 -9.78289,-9.78289 9.7828952,9.7828952 0 0 0 -9.7829,9.78289 9.7828952,9.7828952 0 0 0 0.0119,0.4771 h -14.65242 a 9.7828952,9.7828952 0 0 0 0.009,-0.42521 9.7828952,9.7828952 0 0 0 -9.78289,-9.7829 9.7828952,9.7828952 0 0 0 -9.78253,9.7829 9.7828952,9.7828952 0 0 0 0.009,0.42521 H 98.709632 L 86.724816,394.70469 80.03082,391.35741 a 52.642548,52.642548 0 0 0 -3.81334,19.6713 52.642548,52.642548 0 0 0 52.64069,52.6407 52.642548,52.642548 0 0 0 52.64255,-52.6407 52.642548,52.642548 0 0 0 -52.64255,-52.64255 z m 2.34979,20.90842 12.25137,11.50538 4.90073,-4.31449 11.43517,10.78633 -61.257798,3.7e-4 14.701468,-13.6631 6.53443,5.75297 11.43518,-10.06766 z m 14.90968,54.64684 a 6.5123327,6.5123327 0 0 1 0.0559,0 6.5123327,6.5123327 0 0 1 6.51233,6.51232 6.5123327,6.5123327 0 0 1 -6.51233,6.51234 6.5123327,6.5123327 0 0 1 -6.51233,-6.51234 6.5123327,6.5123327 0 0 1 6.45641,-6.51232 z m -34.1415,0.0515 a 6.5123327,6.5123327 0 0 1 6.51234,6.51234 6.5123327,6.5123327 0 0 1 -6.51234,6.5127 6.5123327,6.5123327 0 0 1 -6.51233,-6.5127 6.5123327,6.5123327 0 0 1 6.51233,-6.51234 z"
         fill="#fff"
         id="path863"
         style="fill:#e0e0e0;fill-opacity:1;stroke-width:0.185753" />
      <path
         d="m 253.51309,393.70343 v 9.16963 q -5.4627,-5.17007 -11.21802,-7.41371 -1.65838,-0.68356 -3.4143,-0.87865 -1.75577,-0.29186 -3.51169,-0.29186 -8.0965,0 -13.26657,6.04811 -5.17007,6.24303 -5.17007,14.82725 0,8.77946 5.36515,15.02249 5.36516,5.95041 13.46166,5.95041 5.07253,0 9.26717,-2.14609 4.19449,-2.24348 8.48667,-6.63321 v 9.26702 q -5.17007,3.21921 -9.36471,4.58481 -4.19449,1.3656 -8.48667,1.3656 -10.9254,0 -18.72927,-7.80388 -7.60879,-8.0965 -7.60879,-19.50976 0,-11.21802 7.51125,-19.31452 7.60879,-7.99896 18.92435,-7.99896 5.75532,0 10.73031,1.951 2.92643,1.07374 7.02353,3.80432 z m 32.38601,48.8718 q -10.04751,0 -17.6563,-7.31616 -8.0965,-7.70634 -8.0965,-19.99748 0,-11.60819 7.12108,-19.41207 7.316,-7.90141 18.04647,-7.90141 10.63276,0 17.94877,7.90141 7.21862,7.80388 7.21862,19.31453 0,12.09606 -7.80388,19.99747 -7.21862,7.41371 -16.77826,7.41371 z m -0.68357,-6.43828 q 7.02354,0 12.48623,-5.85287 5.26762,-5.95041 5.26762,-15.12003 0,-9.4621 -5.65779,-15.41267 -5.17007,-5.46269 -11.99836,-5.46269 -7.02353,0 -11.99852,5.65778 -5.46269,6.24319 -5.46269,15.31512 0,9.16962 5.36515,15.31512 4.97498,5.56024 11.99836,5.56024 z m 69.64962,-71.30784 h 7.51125 v 76.47791 h -6.73076 l -0.68356,-8.48667 q -1.3656,1.951 -2.73135,3.51169 -1.3656,1.4639 -2.73135,2.53626 -4.87744,3.70693 -11.31556,3.70693 -10.04751,0 -16.68088,-7.80388 -6.53566,-7.80387 -6.53566,-18.92435 0,-11.5108 6.92599,-19.60731 7.02338,-8.29158 17.5586,-8.29158 4.38973,0 8.19405,1.56068 1.36559,0.58525 3.12167,1.56083 1.85331,0.97543 4.09694,2.34118 z m 0,51.21297 v -15.02249 q -4.58466,-3.99956 -7.99896,-5.36515 -3.41415,-1.3656 -6.63321,-1.3656 -7.99896,0 -12.97394,6.73091 -4.68236,6.34058 -4.68236,14.72971 0,8.97454 5.17007,14.92495 4.7799,5.46269 11.31556,5.46269 6.43828,0 11.12048,-5.65778 4.68236,-5.65778 4.68236,-14.43708 z m 62.04098,-2.92658 H 377.2038 q 0,11.21817 5.17007,17.16858 5.26761,5.85287 13.75444,5.85287 6.43812,0 12.38853,-4.09695 1.65838,-1.07373 3.51185,-2.6338 1.85331,-1.65838 3.9994,-3.80447 v 8.48682 q -2.34118,1.75577 -4.38957,3.12152 -1.95101,1.26729 -3.70693,2.1461 -6.1455,3.21906 -12.29115,3.21906 -10.63276,0 -18.04631,-7.31616 -7.99912,-7.70634 -7.99912,-19.99748 0,-11.60819 7.21862,-19.41207 7.31616,-7.90141 18.04647,-7.90141 10.43768,0 16.58318,7.60878 5.46285,6.92584 5.46285,17.55861 z m -38.72675,-5.95041 h 30.53255 q -1.17051,-6.63321 -5.07237,-9.85243 -3.80447,-3.3166 -9.26717,-3.3166 -6.04795,0 -10.2426,3.80447 -3.90186,3.51169 -5.95041,9.36456 z m 124.17904,0.68356 v 33.45914 h -7.12107 v -35.11736 q 0,-5.56024 -3.80432,-8.97454 -3.21906,-2.92644 -7.60879,-2.92644 -6.53567,0 -11.70573,6.04811 -5.07253,5.95041 -5.07253,14.72971 v 26.24052 h -7.12108 v -35.11736 q 0,-5.26761 -3.60923,-8.48667 -3.4143,-3.41431 -7.80387,-3.41431 -6.34074,0 -11.31572,5.65779 -5.4627,6.24319 -5.4627,15.41266 v 25.94789 h -7.12107 v -52.1884 h 6.63336 l 0.29339,8.29158 q 2.8289,-4.58466 8.09651,-7.21846 4.68235,-2.24364 9.46225,-2.24364 7.4137,0 12.48623,4.29203 3.70678,3.21922 4.6822,6.43828 1.95101,-3.60923 5.56024,-6.53582 5.65794,-4.19449 12.48623,-4.19449 8.29159,0 12.8764,4.97499 5.17007,5.65778 5.17007,14.92479 z m 8.87685,-18.72926 h 7.02353 v 52.1884 h -7.02353 z m 3.4143,-22.04588 q 2.04839,0 3.41414,1.3656 1.3656,1.3656 1.3656,3.90201 0,2.53627 -1.26728,3.90186 -1.26883,1.3656 -3.51169,1.3656 -2.24364,0 -3.51185,-1.56083 -1.17051,-1.56069 -1.17051,-3.60924 0,-3.21906 1.46237,-4.29218 1.46391,-1.0722 3.21922,-1.0722 z m 57.94372,39.312 v 34.92228 h -7.02353 v -34.43456 q 0,-5.4627 -3.9994,-8.97439 -3.99956,-3.60939 -9.5598,-3.60939 -7.4137,0 -12.77886,6.14565 -5.36515,6.24304 -5.36515,14.04692 v 26.82577 h -6.63321 v -52.1884 h 6.1455 l 0.29186,9.75488 q 2.6338,-3.99956 6.14564,-6.63337 5.75533,-4.29203 12.97379,-4.29203 8.38929,0 14.04707,5.07253 5.75533,4.97498 5.75533,13.36411 z m 55.0173,6.73076 h -39.70218 q 0,11.21817 5.17007,17.16858 5.26761,5.85287 13.75429,5.85287 6.43827,0 12.38868,-4.09695 1.65838,-1.07374 3.51169,-2.6338 1.85347,-1.65838 3.99956,-3.80448 v 8.48683 q -2.34118,1.75577 -4.38973,3.12152 -1.951,1.26729 -3.70677,2.14609 -6.14565,3.21906 -12.29115,3.21906 -10.63276,0 -18.04646,-7.31616 -7.99896,-7.70633 -7.99896,-19.99747 0,-11.60819 7.21861,-19.41207 7.31616,-7.90142 18.04647,-7.90142 10.43768,0 16.58318,7.60879 5.4627,6.92584 5.4627,17.55861 z m -38.72675,-5.95042 h 30.5327 q -1.17051,-6.6332 -5.07253,-9.85242 -3.80431,-3.3166 -9.26716,-3.3166 -6.04796,0 -10.24245,3.80447 -3.90201,3.51169 -5.95056,9.36455 z"
         style="fill:#e0e0e0;stroke-width:4.06452"
         aria-label="codemine"
         id="path1" />
      <path
         style="fill:#c8ffe9;stroke-width:4.06452"
         d="m 649.91729,441.30702 a 8.1290338,8.1290338 0 0 1 -8.12907,8.12907 8.1290338,8.1290338 0 0 1 -8.12907,-8.12907 8.1290338,8.1290338 0 0 1 8.12907,-8.12907 8.1290338,8.1290338 0 0 1 8.12907,8.12907 z"
         id="path2" />
      <path
         d="m 657.49351,389.11862 h 7.02354 v 52.1884 h -7.02354 z m 3.4143,-22.04587 q 2.0484,0 3.41415,1.36559 1.3656,1.3656 1.3656,3.90202 0,2.53626 -1.26729,3.90186 -1.26882,1.36559 -3.51169,1.36559 -2.24363,0 -3.51184,-1.56083 -1.17051,-1.56068 -1.17051,-3.60923 0,-3.21907 1.46237,-4.29219 1.46391,-1.0722 3.21921,-1.0722 z m 36.97083,75.50248 q -10.04751,0 -17.6563,-7.31616 -8.09651,-7.70634 -8.09651,-19.99748 0,-11.60819 7.12108,-19.41207 7.31616,-7.90141 18.04647,-7.90141 10.63277,0 17.94893,7.90141 7.21846,7.80388 7.21846,19.31453 0,12.09606 -7.80387,19.99747 -7.21847,7.41371 -16.77826,7.41371 z m -0.68357,-6.43828 q 7.02338,0 12.48608,-5.85287 5.26761,-5.95041 5.26761,-15.12003 0,-9.4621 -5.65779,-15.41267 -5.17006,-5.46269 -11.99836,-5.46269 -7.02353,0 -11.99851,5.65778 -5.4627,6.24319 -5.4627,15.31512 0,9.16962 5.36515,15.31512 4.97499,5.56024 11.99852,5.56024 z"
         style="fill:#e0e0e0;stroke-width:4.06452"
         aria-label="io"
         id="path3" />
    </g>
  </g>
</svg>
